Patient4_TMGait_0pt7_02_left_08_EMG.mot
version=1
nRows=40
nColumns=33
inDegrees=no
endheader
time	1LAddLong	2LGlutMax	3LGlutMed	4LIliopsoas	5LSemiMemb	6LBicFemLong	7LRecFem	8LVastMed	9LVastLat	10LGasMed	11LTibAnt	12lTibPost	13LPeroneusLong	14LSol	15LExtDigLong	16LFlexDigLong	17RAddLong	18RGlutMax	19RGlutMed	20RIliopsoas	21RSemiMemb	22RBicFemLong	23RRecFem	24RVastMed	25RVastLat	26RGasMed	27RTibAnt	28RTibPost	29RPeroneusLong	30RSol	31RExtDigLong	32RFlexDigLong
9.953	0.01709	-0.031281	0.06134	0.001373	0.010223	0.028992	-0.021057	0.009918	0.10986	-0.020447	-0.10956	-0.002289	0.10788	-0.048676	-0.26535	-0.009003	-0.046082	-0.22232	-0.32806	0.1387	-0.11475	0.22186	-0.032806	-0.095673	0.020142	-0.009003	-0.23911	0.000916	-0.44052	0.074005	-0.00473	-0.013123
9.954	0.014954	-0.022736	0.024261	0.003052	0.004272	0.050507	-0.027771	-0.001373	0.10635	-0.017548	-0.10666	0.001221	0.054932	-0.085754	-0.1149	-0.004578	-0.032501	-0.16083	-1.3759	0.28244	0.29129	0.18234	-0.13748	0.037079	0.13046	-0.003662	0.031128	-0.000458	-1.1775	0.23682	-0.001373	-0.020447
9.955	0.010986	-0.030365	0.065613	-0.02243	-0.007172	0.050507	-0.03418	-0.001373	0.098267	-0.001221	-0.069122	0.001373	0.054779	-0.092163	-0.016174	0.000153	-0.014191	-0.22186	-0.96924	0.15595	0.26947	0.032349	0.010529	0.15167	0.085754	-0.010986	0.020905	-0.004272	-0.2179	0.2713	-0.00946	-0.015564
9.956	0.005493	0.012512	0.11704	0.004272	-0.005646	0.03067	-0.029907	0.005188	0.086212	0.003967	0.042877	0.001068	0.053711	-0.076752	0.022736	0.014038	-0.007782	-0.18433	-0.039368	0.075226	0.07431	-0.085297	0.1535	0.042114	-0.003967	0.001984	-0.2301	-0.003357	0.19333	0.1297	-0.007629	-0.019989
9.957	0.008698	0.020294	0.080872	0.00351	-0.042725	0.026398	-0.007019	0.006409	0.074463	0.009766	0.2121	0.004425	0.037537	-0.052185	0.053558	-0.002289	-0.028839	-0.18051	0.78949	0.004578	-0.14374	-0.000763	0.22568	-0.028992	-0.041809	0.00061	-0.31937	0.001068	0.11963	0.04715	-0.003967	-0.023346
9.958	0.007172	0.032349	0.015411	0.009766	-0.037079	-0.019989	-0.029907	0.006256	0.072021	-0.005798	0.16785	0	0.069122	-0.035706	0.028534	0.003052	-0.010376	-0.21942	1.6362	-0.009308	-0.086212	-0.006409	0.25589	0.054474	-0.08606	-0.001221	-0.26718	-0.003662	0.4364	-0.073395	-0.001831	-0.018311
9.959	0.027771	0.024567	-0.04425	-0.017548	-0.0177	-0.03067	-0.032196	0.006256	0.064697	-0.013885	0.058746	0.002747	0.090179	-0.035248	-0.009003	0.008392	-0.005798	-0.21454	0.39764	-0.023041	-0.063019	-0.059967	0.3447	0.031281	-0.12268	-0.001221	-0.15793	-0.003967	-0.015259	-0.098267	-0.002289	-0.016174
9.96	0.031586	-0.005798	-0.093384	0.00061	-0.020294	-0.033417	-0.03891	0.005646	0.071716	-0.055542	-0.046844	0.00473	0.12695	-0.01358	0.095825	-0.00061	0.00412	-0.16708	0.12863	-0.00412	0.028687	-0.049591	0.14984	-0.075989	-0.10895	-0.001678	0.014648	0.003357	-0.46906	-0.075531	-0.000763	-0.00885
9.961	0.001068	-0.009613	-0.11978	0.007477	0.028381	-0.009918	-0.034637	0.008087	0.06073	-0.10056	0.14633	0.000153	0.12924	0.006104	0.11017	0.002594	-0.017548	-0.2066	0.10788	-0.025177	0.017395	-0.034943	-0.28412	-0.10651	-0.021515	0.001526	0.22446	-0.000916	-0.16968	-0.080261	-0.00061	-0.006409
9.962	0.000763	0.019684	-0.10925	-0.011902	0.039215	0.009613	-0.021667	0.005035	0.064697	-0.10468	0.1535	0.005341	0.1178	-0.027618	0.15747	-0.002747	-0.020905	-0.16663	0.008545	-0.023651	0.029907	-0.0177	-0.36941	0.090942	0.088501	-0.015564	0.49866	-0.000305	0.37842	-0.046234	-0.001373	-0.017853
9.963	0.00061	0.062561	-0.056915	-0.007019	0.017853	0.026855	-0.017395	0.010071	0.06012	-0.091095	0.11124	0.000305	0.12146	-0.085144	0.14587	0.011749	0.006409	-0.11551	-0.27557	-0.028992	0.067444	-0.054626	0.053406	0.2066	0.11871	-0.012207	0.76416	-0.004578	0.24735	-0.039063	0.004883	-0.00824
9.964	0.009155	0.093231	-0.003204	-0.003662	0.030212	0.027161	-0.033722	0.011749	0.054626	-0.058136	-0.22705	0.010834	0.14069	-0.079651	-0.006409	0.002136	0.037842	-0.11871	0.29159	-0.028076	0.040894	-0.080261	0.31464	0.18433	0.18784	-0.021667	0.59341	-0.001678	-0.45715	-0.078125	-0.00412	-0.00946
9.965	0.009918	0.13382	-0.002136	0.012512	-0.001984	-0.005341	-0.047607	0.002441	0.062561	-0.031128	-0.091553	0.003967	0.13123	-0.074158	-0.079346	-0.001984	0.025177	-0.097504	0.21316	-0.095062	-0.002747	-0.060425	0.2945	0.15381	0.14801	-0.011444	0.2124	-0.005035	-0.76508	-0.14114	-0.001984	-0.005798
9.966	0.026398	0.13458	0.070801	-0.000305	-0.085754	-0.018005	-0.029602	-0.002441	0.057526	0.022583	-0.026703	0.002289	0.12344	-0.061035	-0.07309	-0.002441	-0.00351	-0.0914	0.09552	-0.16663	0.006714	0.023956	-0.076599	-0.05661	0.016632	-0.009155	0.24246	-0.006104	-0.87769	-0.20294	-0.003815	-0.003052
9.967	0.02655	0.11353	0.10849	0.015564	-0.015411	-0.002594	-0.034943	0.000305	0.049286	0.030212	-0.032654	0.00351	0.081024	-0.058899	-0.06485	-0.00061	-0.013428	-0.10407	0.022888	-0.027466	0.010834	0.072327	-0.16632	-0.38254	-0.10498	0.004883	0.32105	-0.00351	-0.68771	-0.28427	-0.00412	-0.00061
9.968	0.021057	0.079803	0.065613	0.018921	0.071106	0.067596	-0.030823	0.000153	0.04425	0.010529	-0.011902	0.003815	0.08728	-0.05188	-0.022736	-0.000763	-0.022888	-0.0383	0.086212	0.12344	0.00885	0.070038	-0.06958	-0.22568	-0.012817	0.007019	0.20035	0.000458	0.33905	-0.30243	-0.00351	0.000305
9.969	0.01297	0.093536	-0.055695	0.002289	0.050964	0.10605	-0.047302	0.003967	0.040131	-0.016327	0	0.005188	0.1152	-0.053558	-0.00351	0.007935	-0.023804	-0.077362	-0.15549	0.28915	0.005646	0.064087	-0.19241	-0.16617	-0.14832	0.005341	-0.16663	-0.005951	1.2523	-0.3157	-0.002441	-0.005798
9.97	0.007019	0.14542	-0.079651	0.011444	-0.004578	0.12192	-0.036163	0.001221	0.046387	-0.020905	0.001373	0.006714	0.10559	-0.046387	0.033722	0.003052	-0.018616	-0.11261	-0.27969	0.17487	0.006714	0.047913	-0.42862	-0.18738	-0.006561	-0.003052	-0.54321	-0.007019	0.87189	-0.19272	-0.005035	-0.005188
9.971	0.007629	0.14145	-0.064087	0.008698	-0.10849	0.034637	-0.041656	0.009308	0.037231	-0.027313	0.010376	0.001678	0.11047	-0.059204	0.036621	0.000763	-0.004425	-0.072784	-0.39124	0.074005	0.001221	0.037689	-0.44311	-0.21423	0.21469	-0.005493	-0.31982	-0.006256	0.513	-0.1384	-0.004425	-0.010223
9.972	0.005493	0.16037	0.035248	0.00412	-0.1236	-0.042572	-0.024414	0.007477	0.032196	-0.029755	0.00885	0.008698	0.10956	-0.050201	0.039978	0.004272	0.009918	-0.027924	0.005646	0.045319	-0.010223	0.011749	-0.17777	-0.23697	0.084991	0.001221	-0.17716	-0.00351	-1.3454	-0.11765	-0.006409	-0.006256
9.973	0.011444	0.15671	0.075378	0.00351	-0.012665	-0.039673	-0.040131	0.003662	0.03891	-0.031586	0.021973	0.003357	0.11932	-0.045776	0.029755	0.005493	0.030212	0.063629	1.0855	0.045319	-0.019531	-0.055084	-0.21439	-0.027618	0.098419	-0.003662	-0.37521	0.000305	-1.1063	-0.041199	-0.001678	-0.009155
9.974	0.031128	0.1474	0.007935	0.004425	0.047913	-0.057068	-0.037689	0.000763	0.033112	-0.039368	0.015869	0.004883	0.098419	-0.040283	0.01709	0.001373	0.037231	0.014648	1.2622	0.10101	-0.047607	-0.12131	-0.17838	0.14938	0.12772	-0.007324	-0.28351	-0.00946	-0.41794	-0.094452	-0.003204	-0.013123
9.975	0.023956	0.11734	0.007172	-0.009308	0.083923	-0.046082	-0.037689	0.001068	0.040436	-0.032654	0.005951	0.002441	0.08728	-0.041504	0.020905	0.002289	0.0383	-0.049896	0.39734	0.19394	-0.061493	-0.07843	-0.089569	0.19684	0.12909	-0.00885	-0.23468	-0.009003	1.0559	-0.055389	-0.00473	-0.01236
9.976	0.032349	0.10284	0.026093	-0.003357	0.082855	-0.054932	-0.035858	0.000916	0.026245	-0.033112	0.014801	0.005188	0.10757	-0.04715	0.022583	-0.00351	0.024261	0.010529	0.10422	0.1178	-0.024719	-0.037384	-0.016174	0.16632	0.098877	-0.008698	-0.38208	-0.009155	2.6558	0.015259	-0.00473	-0.0177
9.977	0.031891	0.12695	0.009308	0.028992	0.046844	-0.013733	-0.039825	0.004425	0.027618	-0.037842	0.016327	0.001068	0.13382	-0.037537	0.023499	-0.002899	0.013123	0.034485	0.83878	-0.11139	0.022736	-0.026398	-0.032806	0.074005	0.080261	-0.01358	-0.049896	-0.008392	0.74448	0.062256	-0.002136	-0.01297
9.978	0.018158	0.15091	-0.021362	0.006409	0.02182	-0.026245	-0.049591	0.003052	0.01358	-0.02121	0.015564	-0.001373	0.12589	-0.035858	0.025635	0.005188	0.020447	-0.002594	0.3685	-0.12665	0.009613	-0.031281	-0.045319	0.076447	0.078125	-0.00824	-0.11704	-0.012207	0.13733	0.12116	-0.005798	-0.013275
9.979	0.02243	0.15106	-0.066833	-0.003357	0.009003	-0.039063	-0.042572	-0.003662	0.032043	-0.02655	0.014954	-0.002899	0.11948	-0.039063	0.026245	0.006714	0.018311	-0.13794	0.029297	-0.078583	-0.013733	-0.016327	0.017853	0.1091	0.062103	-0.00061	-0.24948	-0.007324	0.85205	0.094147	-0.003357	-0.00061
9.98	0.01236	0.11139	-0.11597	0.008087	0.004883	-0.009155	-0.033112	0.001526	0.026245	-0.049896	0.014954	0.000305	0.15503	-0.025635	0.021362	0.001831	0.014801	-0.1683	-1.0941	0.003967	-0.019379	-0.011902	0.005951	0.008087	-0.016174	-0.011444	-0.1236	-0.00885	1.4531	0.032043	-0.00473	-0.007172
9.981	0.005341	0.14023	-0.1152	0.001373	0.002594	0.008087	-0.030518	0.005646	0.031738	-0.026245	0.010986	-0.004578	0.11887	-0.051422	0.015564	-0.001068	0.007019	-0.16068	-1.1743	0.030823	-0.021057	-0.022888	0.096741	-0.16495	-0.10361	-0.004272	0.09613	-0.008698	0.33554	-0.13077	-0.00351	-0.007019
9.982	0.013733	0.1294	-0.12192	-0.014954	0.001526	0.019073	-0.027008	0.003967	0.03006	-0.010681	0.013733	-0.000916	0.10147	-0.048218	0.015564	-0.004272	0.010681	-0.11383	-0.57785	-0.036163	-0.018311	-0.028839	0.21881	-0.12421	-0.14771	-0.005951	0.24307	-0.010223	-1.2212	-0.087128	-0.002136	-0.006104
9.983	-0.000305	0.11429	-0.14542	0.019379	0.009308	0.06012	-0.022583	-0.001678	0.026245	-0.013123	0.005646	-0.001373	0.13641	-0.059967	0.012054	-0.003204	0.01236	-0.12405	-0.13977	-0.005341	-0.011444	0.001526	0.072021	-0.039825	-0.06073	0.014191	-0.052643	-0.006104	-1.8626	-0.24338	-0.006104	-0.001678
9.984	0.003815	0.12741	-0.20004	-0.019531	0.000305	0.084076	-0.018616	0.002747	0.025024	-0.01297	0.005341	0.006409	0.14877	-0.060272	0.005035	-0.011139	0.010223	-0.1268	-0.02243	-0.009613	-0.037842	0.024109	0.000305	-0.032501	-0.00885	0.02182	-0.28046	-0.002289	-1.9661	-0.22675	-0.007019	-0.002899
9.985	0.012512	0.16159	-0.20752	0.003357	-0.0177	0.032196	-0.013123	-0.001068	0.018921	-0.022888	-0.005951	0.006866	0.13077	-0.064087	-0.004883	-0.007935	-0.00946	-0.12161	-0.32455	-0.031128	-0.077057	0.046387	-0.24109	-0.035553	0.1062	0.004272	-0.45349	-0.009308	-1.0216	-0.15152	-0.005188	-0.003662
9.986	0.058136	0.14954	-0.23392	0.014954	-0.062103	-0.020599	-0.029144	-0.000305	0.027161	-0.028381	-0.000305	-0.003204	0.11566	-0.057526	0.000916	-0.004272	-0.002594	-0.076599	0.35019	-0.10422	-0.060425	0.014496	-0.086517	0.041199	0.20615	0.00824	-0.74722	-0.005188	0.94574	-0.028076	-0.004578	-0.009613
9.987	0.053406	0.15472	-0.14603	0.01358	-0.032349	-0.046844	-0.02243	-0.003662	0.027008	-0.028839	-0.009766	0.000153	0.11215	-0.061951	-0.015411	-0.004272	0.005188	-0.051575	0.48004	-0.023804	0.027771	-0.029755	0.13062	0.071564	0.17044	-0.002899	-0.44296	-0.006561	1.2041	0.044403	-0.004578	-0.011902
9.988	-0.002747	0.12878	0.13763	0.001984	0.039215	-0.063782	-0.024261	-0.00061	0.037231	-0.034485	-0.022888	-0.00351	0.11154	-0.065308	-0.037231	0.002594	0.013428	-0.092468	-0.094757	0.019836	0.003357	-0.032043	0.10666	-0.018768	0.014343	0.004578	-0.2066	-0.011444	-0.14526	0.088806	0.00351	-0.013123
9.989	0.009155	0.10864	0.25848	0.011597	0.062714	-0.019073	-0.023041	0.010681	0.027161	-0.023499	-0.014496	0.008392	0.11978	-0.079193	0.12726	0.006256	0.004425	-0.086823	-0.24048	0.028534	-0.014648	0.001831	0.06424	-0.061188	-0.031281	-0.00412	0.32577	-0.009155	0.064392	0.24765	-0.002899	-0.022278
9.99	-0.004425	0.06424	0.18463	0.00885	0.033569	0.01236	-0.020752	0.005646	0.01709	-0.016785	0.003357	0.003967	0.088196	-0.050812	0.44586	0.010071	-0.010529	-0.077057	-0.56213	0.037384	-0.014038	0.009613	0.043793	0.10956	-0.031281	-0.017548	0.80658	-0.009613	-0.013275	0.10437	-0.001831	-0.020142
9.991	-0.015411	0.098572	0.13367	0.001984	-0.042114	0.011292	-0.014648	0.007324	0.017853	-0.04364	0.059204	0.001526	0.10147	-0.045776	-0.042267	-0.002136	0.008392	-0.10086	-0.79392	0.065918	-0.042572	0.028381	0.09903	0.054169	-0.06073	-0.016785	1.0327	-0.015106	-0.070496	-0.025635	0	-0.018768
9.992	-0.007935	0.092621	0.11154	0.015869	-0.055695	-0.041962	-0.027313	0.001984	0.042877	-0.04837	0.054932	0.007629	0.12817	-0.032501	0.074463	-0.009766	0.009766	-0.10483	0.086975	0.057831	-0.04837	0.02533	-0.055695	-0.007477	-0.16159	-0.006714	1.0216	-0.005646	-0.43091	0.036011	-0.002747	-0.013123
